<?xml version="1.0" encoding="UTF-8" standalone="no"?>
<!-- Created with Inkscape (http://www.inkscape.org/) -->

<svg
   xmlns:dc="http://purl.org/dc/elements/1.1/"
   xmlns:cc="http://creativecommons.org/ns#"
   xmlns:rdf="http://www.w3.org/1999/02/22-rdf-syntax-ns#"
   xmlns:svg="http://www.w3.org/2000/svg"
   xmlns="http://www.w3.org/2000/svg"
   xmlns:sodipodi="http://sodipodi.sourceforge.net/DTD/sodipodi-0.dtd"
   xmlns:inkscape="http://www.inkscape.org/namespaces/inkscape"
   sodipodi:docname="Nouveau document 4"
   width="210mm"
   height="297mm"
   id="svg3020"
   version="1.1"
   inkscape:version="0.48.4 r9939">
  <sodipodi:namedview
     id="base"
     pagecolor="#ffffff"
     bordercolor="#666666"
     borderopacity="1.0"
     inkscape:pageopacity="0.0"
     inkscape:pageshadow="2"
     inkscape:zoom="5.6"
     inkscape:cx="293.52708"
     inkscape:cy="422.75993"
     inkscape:document-units="px"
     inkscape:current-layer="layer1"
     showgrid="false"
     inkscape:window-width="1065"
     inkscape:window-height="810"
     inkscape:window-x="411"
     inkscape:window-y="206"
     inkscape:window-maximized="0" />
  <defs
     id="defs3022" />
  <metadata
     id="metadata3025">
    <rdf:RDF>
      <cc:Work
         rdf:about="">
        <dc:format>image/svg+xml</dc:format>
        <dc:type
           rdf:resource="http://purl.org/dc/dcmitype/StillImage" />
        <dc:title></dc:title>
      </cc:Work>
    </rdf:RDF>
  </metadata>
  <g
     id="layer1"
     inkscape:groupmode="layer"
     inkscape:label="Calque 1">
    <path
       sodipodi:nodetypes="ccccccccccccccccc"
       inkscape:connector-curvature="0"
       id="path2996-3"
       d="M290.56518 598.00131C290.023600083 598.292370957 289.486866033 598.598222525 288.9569207 598.918654149C288.429945381 599.237289952 287.909682898 599.570342846 287.398043617 599.917605795C286.887919407 600.263840426 286.386367404 600.624201079 285.895281052 600.998482555C285.404135195 601.372809383 284.923457526 601.761060408 284.455142178 602.163030353C283.98633262 602.565424496 283.529911488 602.98156653 283.087778921 603.411250529C282.644649022 603.84190378 282.215872221 604.28616016 281.803361543 604.743812346C281.389514834 605.202946767 280.992039782 605.675563906 280.612868061 606.161454422C280.232828552 606.648456966 279.871176247 607.148793712 279.529856113 607.662253875C279.188186154 608.176240292 278.866890064 608.703377041 278.567918794 609.24345269C278.269339452 609.782820341 277.993026437 610.33509299 277.740923036 610.900060034C277.490291077 611.461729556 277.263586952 612.035945721 277.062720119 612.622501592C276.864193482 613.202223803 276.69090561 613.793999868 276.5447 614.39763C276.38074554 615.007261038 276.238496796 615.619176243 276.116894788 616.23286583C275.994417655 616.850971912 275.892885499 617.470878009 275.811216308 618.092063252C275.729135232 618.716381345 275.667117978 619.34199152 275.624066082 619.968364987C275.580940876 620.595805046 275.556845672 621.224010998 275.550676382 621.85245135C275.544508707 622.480727204 275.556257564 623.109237334 275.584819733 623.737450664C275.61333796 624.364697528 275.658617808 624.991648504 275.71956114 625.617774962C275.780351288 626.242327629 275.856726278 626.866059918 275.947596235 627.488447174C276.038266915 628.109469547 276.143369057 628.72915278 276.26181994 629.346975664C276.380039473 629.963591863 276.511555653 630.578354973 276.655292093 631.190746832C276.798793945 631.802139229 276.9544762 632.411168109 277.12126773 633.017317843C277.287985005 633.62319772 277.465801665 634.226201015 277.653648012 634.825812786C277.841596661 635.425751105 278.039585924 636.022294205 278.246544356 636.614926305C278.454008852 637.209007534 278.670486433 637.799158613 278.894897774 638.384859966C279.1204641 638.973575765 279.354046062 639.557795917 279.594547584 640.136992783C279.836462435 640.719593353 280.085378412 641.297111424 280.34018 641.86901C280.626719222 642.460743345 280.921714383 643.04965734 281.225472516 643.634860174C281.528416698 644.218494899 281.840076955 644.798438324 282.160757857 645.373805786C282.481213608 645.94876928 282.810677343 646.519163234 283.149452995 647.084104848C283.487944704 647.648572959 283.835732727 648.207597866 284.193120232 648.760298985C284.550973882 649.313721 284.918452072 649.860802719 285.29585916 650.400660112C285.673155463 650.940359033 286.060374834 651.472837868 286.457821363 651.99721336C286.855996706 652.522550421 287.264436749 653.039754394 287.683447256 653.547937156C288.102662358 654.056368054 288.532458249 654.555768929 288.973141143 655.045250357C289.413501428 655.534373453 289.864732782 656.013591619 290.327140745 656.482017384C290.789548707 656.950443149 291.263133279 657.408076512 291.7482 657.85403C292.061666272 658.032265376 292.477465416 658.376989884 292.934546963 658.777425666C293.294923065 659.093140635 293.680961111 659.443486814 294.062740118 659.774171702C294.474275659 660.130630758 294.880862371 660.464244212 295.245023517 660.707009423C295.860891316 661.117572928 296.355415916 661.268297451 296.54732 660.83025C296.54732 660.17666375 296.54732 659.5230775 296.54732 658.86949125C296.54732 658.216064567 296.54732 657.562637884 296.54732 656.909211201C296.54732 656.255279209 296.54732 655.601347218 296.54732 654.947415227C296.54732 654.294025769 296.54732 653.640636312 296.54732 652.987246855C296.54732 652.33365795 296.54732 651.680069046 296.54732 651.026480141C296.54732 650.372572101 296.54732 649.718664062 296.54732 649.064756022C296.54732 648.411326685 296.54732 647.757897348 296.54732 647.104468011C296.54732 646.451038674 296.54732 645.797609337 296.54732 645.14418C297.152966262 645.113308833 297.764005372 645.084761189 298.378477836 645.05480103C298.986362402 645.025162081 299.597607098 644.994140742 300.210314782 644.958119858C300.819599721 644.922300196 301.43033135 644.881536689 302.040644143 644.832272464C302.650192751 644.783069922 303.259323571 644.725387936 303.866178077 644.655682974C304.474508036 644.585808537 305.080550599 644.50385259 305.682433651 644.406245692C306.287658272 644.308096895 306.888677068 644.194122881 307.483586568 644.060694427C308.081664362 643.926555378 308.673567614 643.772754122 309.257362282 643.595603143C309.843335712 643.417791026 310.421139921 643.216454575 310.98881913 642.987864835C311.554422058 642.76011116 312.109973916 642.505303189 312.653540305 642.219752732C313.190773883 641.937529076 313.716299638 641.625275092 314.22825 641.27943C314.743645856 640.875772996 315.246167566 640.453756916 315.734545914 640.014670651C316.221252649 639.577087282 316.693912675 639.122550383 317.151269763 638.652335652C317.608124383 638.182637514 318.04970967 637.697295975 318.474773532 637.197582533C318.899343729 636.698449454 319.307430853 636.184977835 319.697787169 635.658434752C320.088238507 635.131763496 320.460950404 634.592014411 320.814674211 634.040455497C321.168895451 633.48812094 321.504075159 632.923943315 321.818959414 632.349195978C322.134125747 631.773933772 322.428960249 631.188082909 322.702205622 630.592920172C322.975885126 629.996811844 323.227906846 629.391362028 323.457007485 628.777853602C323.686556023 628.163145746 323.893093768 627.54034774 324.07535 626.91075C324.17105625 626.32217625 324.246454375 625.731649531 324.303785996 625.139707031C324.361201599 624.546897428 324.40049773 623.952667893 324.423925876 623.357557977C324.447325462 622.763173522 324.454895726 622.167910832 324.44887993 621.572307487C324.442869126 620.977198284 324.423294797 620.381748991 324.392394626 619.786495853C324.361545393 619.192223973 324.319407629 618.598147601 324.268207968 618.004800334C324.21700004 617.411357249 324.156727288 616.818643504 324.089617429 616.227192954C324.022392759 615.634730565 323.948307568 615.043535696 323.869601022 614.454144948C323.790586427 613.862447387 323.706914233 613.272568096 323.62085 612.68505C323.58646957 611.982233906 323.444942895 611.360161988 323.216352012 610.811686087C322.958948846 610.194078635 322.591150627 609.669788936 322.141630326 609.228610906C321.688749497 608.784134713 321.152920141 608.424017489 320.563463108 608.137822539C319.998870611 607.863699893 319.385079273 607.657394661 318.747853812 607.509735944C318.127043851 607.365881049 317.483991585 607.277690016 316.842521419 607.236682598C316.190949361 607.195029394 315.541009626 607.202057605 314.91767 607.24888C314.166105421 607.189714115 313.551595072 607.261775015 313.050668142 607.438432423C312.39564872 607.669432249 311.934840614 608.079277066 311.61576701 608.608426018C311.311277031 609.11338961 311.135861368 609.727000704 311.043914872 610.397515128C310.962210853 610.993336893 310.946415507 611.634090493 310.964529673 612.28346928C310.982145774 612.914992822 311.03183228 613.554673758 311.084157655 614.169118697C311.141517407 614.842681164 311.202048243 615.48591797 311.22698 616.05484C311.2076196 616.632267124 311.21096572 617.219928671 311.223811751 617.813528749C311.236403689 618.395387463 311.258123439 618.982952105 311.276532672 619.572176691C311.294830496 620.157835443 311.30985775 620.745134109 311.309400558 621.330099717C311.308939789 621.919642431 311.292751309 622.506815434 311.248332288 623.087551764C311.203293509 623.67639084 311.129230919 624.258612374 311.013111014 624.829976782C310.896343415 625.404528153 310.737048016 625.968100942 310.521972002 626.516384228C310.311467652 627.053013183 310.047528834 627.574995715 309.71773 628.07829C309.314054761 628.565106118 308.871107381 629.007851106 308.395841141 629.40675015C307.914689068 629.810589274 307.400412684 630.169489729 306.860226819 630.48368517C306.320067618 630.797865102 305.754001492 631.067344435 305.1692422 631.292356791C304.587028672 631.516389549 303.986284386 631.696341664 303.374129293 631.83244372C302.764670133 631.967946382 302.143900451 632.059984366 301.518846545 632.108785224C300.895719801 632.157435619 300.268335211 632.163115093 299.64365428 632.126049099C299.01863315 632.088962919 298.396318625 632.009084701 297.783683592 631.886640265C297.168646051 631.763715652 296.563364069 631.597890312 295.97489289 631.389392734C295.383538175 631.179873509 294.809159414 630.927262829 294.258916072 630.631792559C293.707596986 630.335744635 293.180507782 629.996669373 292.68485 629.6148C292.19290752 629.220677246 291.767847498 628.781966829 291.401136235 628.307452186C291.024693683 627.820345513 290.70973774 627.295509152 290.447037151 626.742444506C290.186325464 626.193567105 289.977080876 625.616887232 289.810280219 625.021692119C289.646470271 624.437168757 289.523595873 623.834788151 289.433110556 623.22334688C289.343852069 622.620195726 289.286110334 622.008227934 289.25168182 621.395887112C289.217118556 620.781149653 289.20605136 620.166036237 289.21018 619.55909C289.198007734 618.891471985 289.26141825 618.252049481 289.388591407 617.638544304C289.521223837 616.998702654 289.7232108 616.387051244 289.981143632 615.801005723C290.240055543 615.212735649 290.555338857 614.650266227 290.913431637 614.110983564C291.267516103 613.577737364 291.663457023 613.067161747 292.088142799 612.576729615C292.508448967 612.091355107 292.956910181 611.625710765 293.420816319 611.177346872C293.886538135 610.72722813 294.367826011 610.29452537 294.85182 609.87676C295.261640696 609.497192485 295.685985712 609.064143917 296.091265792 608.59364874C296.475224872 608.147905403 296.842072191 607.668551808 297.163245696 607.169222574C297.492673567 606.657060256 297.774049762 606.12388233 297.976552957 605.58440192C298.193903748 605.005366638 298.320391542 604.41907079 298.317906303 603.8437069C298.315374769 603.257625369 298.179020537 602.682886861 297.86856396 602.138719602C297.604661847 601.676152854 297.214957421 601.235676181 296.67471 600.8291C296.246183379 600.49143261 295.792297317 600.10907091 295.315351712 599.735053254C294.860034808 599.377996683 294.383702364 599.028544538 293.888355363 598.732841833C293.376220058 598.427117169 292.843759472 598.178847038 292.293185013 598.039029111C291.735031358 597.897286453 291.158261688 597.867002451 290.56518 598.00131C290.56518 598.00131 290.56518 598.00131 290.56518 598.00131"
       style="fill:none;stroke:#000000;stroke-width:1px;stroke-linecap:butt;stroke-linejoin:miter;stroke-opacity:1" />
  </g>
</svg>
